# xmcd
#
# Track frame offsets:
#	150
#	20964
#	36717
#	49663
#	72360
#	86595
#	108767
#	128745
#	145928
#	161165
#	173021
#	181273
#	197132
#	218635
#
# Disc length: 3107 seconds
#
# Revision: 0
# Processed by: cddbd v1.5.2PL0 Copyright (c) Steve Scherf et al.
# Submitted via: EZCDAudioConverter 1.3.4.1
#
DISCID=cb0c210e
DTITLE=Ondatropica - Ondatropica (2012) 1/2
DYEAR=1900
DGENRE=
TTITLE0=Tiene Sabor, Tiene Sazón
TTITLE1=Punkero Sonidero
TTITLE2=I Ron Man
TTITLE3=Suena
TTITLE4=Locomotora Borracha
TTITLE5=Remando
TTITLE6=Ska Fuentes
TTITLE7=3 Reyes De La Terapia
TTITLE8=Libya
TTITLE9=Gaita Trópica
TTITLE10=Rap-Maya
TTITLE11=Dos Lucecitas
TTITLE12=Cumbia Espacial
TTITLE13=Swing De Gillian
EXTD=
EXTT0=
EXTT1=
EXTT2=
EXTT3=
EXTT4=
EXTT5=
EXTT6=
EXTT7=
EXTT8=
EXTT9=
EXTT10=
EXTT11=
EXTT12=
EXTT13=
PLAYORDER=
